<?xml version="1.0" encoding="utf-8"?>
<!-- Generator: Adobe Illustrator 25.3.1, SVG Export Plug-In . SVG Version: 6.00 Build 0)  -->
<svg version="1.1" id="Capa_1" xmlns="http://www.w3.org/2000/svg" xmlns:xlink="http://www.w3.org/1999/xlink" x="0px" y="0px"
	 viewBox="0 0 77.01 75.08" style="enable-background:new 0 0 77.01 75.08;" xml:space="preserve">
<style type="text/css">
	.st0{fill:#FFFFFF;}
</style>
<g>
	<path class="st0" d="M76.99,13.7c0-6.48-4.31-11.87-10.62-13.35c-0.59-0.14-1.2-0.19-1.8-0.28C64.46,0.05,64.36,0.02,64.25,0
		c-17.17,0-34.33,0-51.5,0c-0.74,0.12-1.49,0.22-2.23,0.37C5.36,1.49,1.08,6.01,0.24,11.23c-0.08,0.5-0.15,1.01-0.22,1.51
		c0,16.53,0,33.06,0,49.59c0.12,0.73,0.21,1.47,0.37,2.19c1.17,5.29,5.56,9.44,10.93,10.33c0.83,0.14,1.67,0.21,2.51,0.21
		c16.45,0.01,32.91,0.01,49.36,0.01c6.12,0,11.28-3.72,13.16-9.49c0.45-1.37,0.65-2.78,0.65-4.21C76.99,45.49,77,29.59,76.99,13.7z
		 M40.4,36.08c-1.4,2.78-3.69,4.52-6.63,5.44c-2.18,0.68-4.42,0.85-6.69,0.84c-0.81,0-1.61-0.02-2.42-0.05
		c-0.33-0.02-0.41,0.11-0.41,0.42c0.01,3.21,0.01,6.42,0.01,9.63c0,0.66-0.03,0.69-0.68,0.69c-1.87,0-3.74,0-5.6,0
		c-0.59,0-0.62-0.03-0.62-0.62c0-5.42,0-10.84,0-16.26c0-5.4,0-10.79,0-16.19c0-0.67,0-0.67,0.67-0.68
		c3.47-0.06,6.93-0.15,10.4-0.16c2.53,0,4.98,0.43,7.26,1.6c3.43,1.75,5.34,4.58,5.78,8.39C41.74,31.53,41.51,33.89,40.4,36.08z
		 M63.61,46.22c-0.32,3.54-2.38,5.67-5.63,6.79c-1.68,0.58-3.43,0.73-5.19,0.71c-2.21-0.03-4.38-0.28-6.47-1.05
		c-1.53-0.57-1.25-0.46-1.27-1.81c-0.01-0.63,0-1.27,0-1.9c0-0.9,0-1.81,0-2.71c0-0.46,0.11-0.52,0.52-0.29
		c2.57,1.43,5.33,2.06,8.26,1.94c0.67-0.03,1.36-0.18,1.98-0.42c1.03-0.4,1.25-1.59,0.46-2.36c-0.39-0.37-0.86-0.69-1.35-0.91
		c-1.23-0.56-2.5-1.02-3.74-1.58c-1.45-0.66-2.83-1.42-3.99-2.55c-3.29-3.19-2.52-8.58,1-11.08c1.53-1.09,3.25-1.65,5.1-1.82
		c2.34-0.21,4.65-0.08,6.95,0.38c0.49,0.1,0.96,0.27,1.43,0.44c0.58,0.2,0.65,0.32,0.65,0.94c0,1.05,0,2.1,0,3.15
		c0,0.55,0,1.1,0,1.65c0,0.57-0.27,0.73-0.8,0.51c-0.67-0.28-1.34-0.6-2.04-0.8c-1.76-0.51-3.55-0.77-5.38-0.63
		c-0.43,0.03-0.87,0.12-1.29,0.25c-1.11,0.36-1.44,1.63-0.61,2.45c0.33,0.33,0.73,0.62,1.15,0.82c1.25,0.57,2.54,1.06,3.79,1.64
		c1.1,0.52,2.21,1.05,3.23,1.7C62.77,41.18,63.86,43.4,63.61,46.22z"/>
	<path class="st0" d="M24.31,36.34c0-0.25,0-0.37,0-0.49c0-3.32,0.01-6.64-0.01-9.96c0-0.38,0.12-0.49,0.47-0.48
		c1.56,0.03,3.13-0.03,4.68,0.1c0.88,0.08,1.78,0.36,2.58,0.74c1.6,0.76,2.39,2.14,2.55,3.88c0.08,0.86,0.03,1.73-0.25,2.57
		c-0.5,1.53-1.63,2.43-3.07,2.97c-1.24,0.46-2.54,0.67-3.87,0.68C26.38,36.35,25.37,36.34,24.31,36.34z"/>
</g>
</svg>
