<?xml version="1.0" encoding="utf-8"?>
<!-- Generator: Adobe Illustrator 25.3.1, SVG Export Plug-In . SVG Version: 6.00 Build 0)  -->
<svg version="1.1" id="Capa_1" xmlns="http://www.w3.org/2000/svg" xmlns:xlink="http://www.w3.org/1999/xlink" x="0px" y="0px"
	 viewBox="0 0 77.01 75.08" style="enable-background:new 0 0 77.01 75.08;" xml:space="preserve">
<style type="text/css">
	.st0{fill:#FFFFFF;}
</style>
<g>
	<path class="st0" d="M76.75,11.1c-1.01-4.82-3.8-8.19-8.33-10.12c-1.27-0.54-2.6-0.83-3.98-0.92c-0.07,0-0.14-0.04-0.21-0.06
		C47.08,0,29.93,0,12.77,0c-0.55,0.08-1.1,0.14-1.64,0.25C7.31,0.99,4.32,3,2.18,6.25c-1.25,1.9-1.95,4-2.13,6.27
		C0.05,12.61,0.02,12.69,0,12.77C0,29.28,0,45.8,0,62.31c0.08,0.56,0.14,1.12,0.25,1.67c0.93,4.53,3.5,7.81,7.66,9.83
		c1.47,0.71,3.03,1.1,4.65,1.22c0.07,0.01,0.14,0.04,0.21,0.06c17.16,0,34.31,0,51.47,0c0.55-0.08,1.1-0.13,1.64-0.25
		c5.75-1.28,9.35-4.78,10.8-10.48c0.15-0.59,0.18-1.2,0.27-1.8c0.02-0.1,0.04-0.2,0.06-0.31c0-16.47,0-32.94,0-49.41
		C76.93,12.26,76.87,11.67,76.75,11.1z M40.87,52.89c-2.52,0-5.05-0.01-7.57,0c-0.51,0-0.81-0.21-1.05-0.66
		c-2.07-3.9-4.16-7.78-6.24-11.67c-0.04-0.07-0.09-0.14-0.17-0.26c-0.07,0.12-0.13,0.2-0.17,0.29c-2.13,4-4.27,7.99-6.39,11.99
		c-0.12,0.23-0.28,0.37-0.55,0.37c-2.45,0-4.9,0.01-7.35,0.01c-0.03,0-0.06-0.02-0.17-0.05c0.07-0.18,0.11-0.37,0.21-0.53
		c1.85-3.05,3.71-6.1,5.57-9.15c1.38-2.26,2.76-4.53,4.14-6.79c0.12-0.2,0.12-0.34,0-0.55c-3.16-5.34-6.32-10.69-9.47-16.04
		c-0.08-0.13-0.09-0.31-0.14-0.46c0.16-0.04,0.32-0.11,0.48-0.11c2.31-0.01,4.62,0,6.93-0.01c0.54,0,0.86,0.19,1.08,0.7
		c1.07,2.42,2.39,4.7,3.68,7.01c0.85,1.51,1.65,3.04,2.47,4.56c0.07,0.12,0.13,0.24,0.22,0.42c0.07-0.12,0.12-0.17,0.15-0.24
		c2.03-3.86,4.07-7.71,6.06-11.59c0.32-0.63,0.67-0.85,1.38-0.83c2.04,0.06,4.09,0.02,6.13,0.02c0.14,0,0.34,0.03,0.39,0.12
		c0.05,0.08-0.03,0.28-0.1,0.39c-3.13,5.18-6.27,10.35-9.41,15.52c-0.12,0.2-0.12,0.34,0.01,0.54c3.33,5.44,6.65,10.89,9.97,16.34
		c0.11,0.17,0.17,0.37,0.28,0.62C41.07,52.87,40.97,52.89,40.87,52.89z M65.26,51.67c-2.44,1-4.99,1.56-7.61,1.79
		c-2.12,0.18-4.23,0.17-6.31-0.33c-2.39-0.58-4.55-1.6-6.27-3.42c-1.68-1.77-2.65-3.89-3.02-6.29c-0.32-2.12-0.39-4.24,0.17-6.33
		c1.26-4.67,4.23-7.78,8.77-9.36c2.25-0.78,4.59-0.98,6.96-0.79c0.16,0.01,0.32,0,0.52,0c0-0.17,0-0.31,0-0.45c0-3.15,0-6.31,0-9.46
		c0-0.52,0.03-0.54,0.55-0.54c1.99,0,3.98,0,5.97,0c0.61,0,0.61,0,0.61,0.6c0,9.61-0.01,19.23,0.01,28.84
		c0,1.66,0.11,3.31,0.17,4.97C65.8,51.4,65.75,51.47,65.26,51.67z"/>
	<path class="st0" d="M58.47,40.11c0,2.26,0,4.51,0,6.77c0,0.21-0.03,0.35-0.27,0.38c-2.01,0.26-3.99,0.29-5.86-0.67
		c-1.38-0.7-2.23-1.87-2.74-3.3c-0.62-1.76-0.69-3.57-0.26-5.37c0.52-2.2,2-3.61,4.01-4.49c1.54-0.68,3.16-0.78,4.81-0.47
		c0.24,0.05,0.31,0.14,0.3,0.38C58.47,35.6,58.47,37.86,58.47,40.11z"/>
</g>
</svg>
