<?xml version="1.0" encoding="utf-8"?>
<!-- Generator: Adobe Illustrator 25.3.1, SVG Export Plug-In . SVG Version: 6.00 Build 0)  -->
<svg version="1.1" id="Capa_1" xmlns="http://www.w3.org/2000/svg" xmlns:xlink="http://www.w3.org/1999/xlink" x="0px" y="0px"
	 viewBox="0 0 77.01 75.08" style="enable-background:new 0 0 77.01 75.08;" xml:space="preserve">
<style type="text/css">
	.st0{fill:#FFFFFF;}
</style>
<g>
	<path class="st0" d="M13.48,75.02c0.18,0,0.37-0.01,0.55-0.01c16.45,0,32.9,0,49.35,0c0.1,0,0.19,0.01,0.29,0.01
		c0.02,0.01,0.02,0.03,0.02,0.04c-0.01,0.01-0.01,0.02-0.02,0.02c-16.73,0-33.46,0-50.19,0c-0.02-0.01-0.03-0.03-0.02-0.04
		C13.47,75.03,13.47,75.02,13.48,75.02z"/>
	<path class="st0" d="M0.14,62.56C0.03,62.44,0.12,62.24,0,62.12c0-16.28,0-32.57,0-48.85c0.03-0.04,0.05-0.04,0.08,0
		c0,0.19,0.01,0.39,0.01,0.58c0,15.77,0,31.55,0,47.32C0.09,61.64,0.17,62.1,0.14,62.56z"/>
	<path class="st0" d="M0,12.83c0.13-0.12,0.01-0.32,0.14-0.44c0.02,0.25,0.01,0.5-0.05,0.74c-0.03,0.04-0.06,0.04-0.09,0
		C0,13.03,0,12.93,0,12.83z"/>
	<path class="st0" d="M64.26,75.01c0,0.02,0,0.05,0,0.07c-0.1,0-0.2,0-0.29,0c-0.03-0.02-0.03-0.03-0.03-0.04
		c0.01-0.01,0.02-0.02,0.03-0.02C64.06,75,64.16,74.98,64.26,75.01z"/>
	<path class="st0" d="M12.9,75.08c0-0.02,0-0.05,0-0.07c0.1-0.03,0.19-0.01,0.29,0.01c0.03,0.01,0.04,0.03,0.03,0.04
		c-0.01,0.01-0.02,0.02-0.03,0.02C13.09,75.08,12.99,75.08,12.9,75.08z"/>
	<path class="st0" d="M13.19,75.08c0-0.02,0-0.04,0-0.07c0.1-0.02,0.2-0.01,0.29,0c0,0.02,0,0.04,0,0.06
		C13.38,75.08,13.29,75.08,13.19,75.08z"/>
	<path class="st0" d="M63.97,75.02c0,0.02,0,0.04,0,0.07c-0.1,0-0.2,0-0.29,0c0-0.02,0-0.04,0-0.06
		C63.77,75.01,63.87,74.99,63.97,75.02z"/>
	<path class="st0" d="M64.7,0.02c0,0.02,0,0.04,0,0.06c-0.1,0.03-0.19,0.01-0.29,0c-0.03-0.01-0.04-0.02-0.03-0.04
		c0.01-0.01,0.02-0.02,0.03-0.02C64.5,0.02,64.6,0.02,64.7,0.02z"/>
	<path class="st0" d="M12.38,0.08c0-0.02,0-0.04,0-0.06c0.07,0,0.15,0,0.22,0c0.03,0.01,0.03,0.03,0.02,0.04
		c-0.01,0.01-0.02,0.02-0.03,0.02C12.53,0.08,12.45,0.08,12.38,0.08z"/>
	<path class="st0" d="M63.97,0.09c-0.08,0-0.17,0.01-0.22-0.07c0.07,0,0.15,0,0.22,0c0.02,0.01,0.03,0.03,0.03,0.04
		C63.99,0.08,63.98,0.09,63.97,0.09z"/>
	<path class="st0" d="M76.94,62.71c-0.02-0.09-0.01-0.17,0.07-0.23c0,0.07,0,0.15,0,0.22C76.99,62.74,76.97,62.74,76.94,62.71z"/>
	<path class="st0" d="M77.01,63.07l-0.03,0l-0.03,0c0-0.07,0-0.15,0-0.22c0.02-0.04,0.04-0.04,0.06,0
		C77.01,62.93,77.01,63,77.01,63.07z"/>
	<path class="st0" d="M13.41,0.02c-0.06,0.08-0.14,0.07-0.22,0.07c-0.02-0.02-0.03-0.03-0.02-0.05c0.01-0.01,0.02-0.02,0.03-0.02
		C13.26,0.02,13.34,0.02,13.41,0.02z"/>
	<path class="st0" d="M12.6,0.08c0-0.02,0-0.04,0-0.06c0.05,0,0.1,0,0.15,0c0.03,0.02,0.03,0.03,0.02,0.04
		c-0.01,0.01-0.02,0.02-0.03,0.02C12.7,0.08,12.65,0.08,12.6,0.08z"/>
	<path class="st0" d="M12.75,0.08c0-0.02,0-0.04,0-0.06c0.05,0,0.1,0,0.15,0c0.03,0.02,0.03,0.03,0.02,0.04
		c-0.01,0.01-0.02,0.02-0.03,0.02C12.84,0.08,12.79,0.08,12.75,0.08z"/>
	<path class="st0" d="M12.89,0.08c0-0.02,0-0.04,0-0.06c0.05,0,0.1,0,0.15,0c0.03,0.02,0.03,0.03,0.02,0.04
		c-0.01,0.01-0.02,0.02-0.03,0.02C12.99,0.08,12.94,0.08,12.89,0.08z"/>
	<path class="st0" d="M76.95,11.95c0.02,0,0.04,0,0.06,0c0,0.05,0,0.1,0,0.15c-0.02,0.04-0.04,0.04-0.06,0
		C76.95,12.05,76.95,12,76.95,11.95z"/>
	<path class="st0" d="M64.41,0.02c0,0.02,0,0.04,0,0.06c-0.05,0-0.1,0-0.15,0c-0.03-0.01-0.04-0.02-0.03-0.04
		c0.01-0.02,0.02-0.02,0.03-0.02C64.31,0.02,64.36,0.02,64.41,0.02z"/>
	<path class="st0" d="M64.26,0.02c0,0.02,0,0.04,0,0.06c-0.05,0-0.1,0-0.15,0c-0.03-0.01-0.04-0.03-0.03-0.04
		c0.01-0.02,0.02-0.02,0.03-0.02C64.16,0.02,64.21,0.02,64.26,0.02z"/>
	<path class="st0" d="M64.11,0.02c0,0.02,0,0.04,0,0.06c-0.05,0-0.1,0-0.15,0.01c0-0.02,0-0.05,0-0.07
		C64.02,0.02,64.06,0.02,64.11,0.02z"/>
	<path class="st0" d="M77.01,62.85l-0.03,0l-0.03,0c0-0.05,0-0.1,0-0.14c0.02,0,0.04-0.01,0.07-0.01
		C77.01,62.76,77.01,62.8,77.01,62.85z"/>
	<path class="st0" d="M0,13.13c0.03,0,0.06,0,0.09,0c0,0.05,0,0.1-0.01,0.14c-0.03,0-0.05,0-0.08,0C0,13.22,0,13.18,0,13.13z"/>
	<path class="st0" d="M76.95,12.39c0-0.05,0-0.1,0-0.14c0.02-0.03,0.04-0.03,0.06,0c0,0.05,0,0.1,0,0.15
		C76.98,12.43,76.96,12.43,76.95,12.39z"/>
	<path class="st0" d="M13.04,0.08c0-0.02,0-0.04,0-0.06c0.05,0,0.1,0,0.15,0c0,0.02,0,0.05,0,0.07C13.14,0.08,13.09,0.08,13.04,0.08
		z"/>
	<path class="st0" d="M77.01,12.25c-0.02,0-0.04,0-0.06,0c0-0.05,0-0.1,0-0.14c0.02,0,0.04,0,0.06,0
		C77.01,12.15,77.01,12.2,77.01,12.25z"/>
	<path class="st0" d="M76.95,12.39c0.02,0,0.04,0,0.06,0.01c0,0.05,0,0.1,0,0.15C76.95,12.51,76.93,12.45,76.95,12.39z"/>
	<path class="st0" d="M77.01,12.54c-0.05-0.05-0.03-0.12-0.04-0.18c0-0.05,0-0.1,0-0.14c0-0.05,0-0.1,0-0.15c0-0.05,0-0.11,0-0.16
		c0-0.3-0.02-0.61-0.07-0.91c-0.2-1.25-0.63-2.43-1.21-3.55C74.16,4.48,71.86,2.31,68.78,1c-1.3-0.55-2.64-0.95-4.07-0.94
		c-0.09,0-0.18,0-0.27,0c-0.05,0-0.11,0-0.16,0c-0.05,0-0.1,0-0.15,0c-0.05,0-0.1,0-0.15,0c-0.08-0.01-0.16,0.03-0.23-0.04
		c-16.78,0-33.56,0-50.34,0c-0.07,0.06-0.15,0.03-0.23,0.04c-0.05,0-0.1,0-0.15,0c-0.05,0-0.1,0-0.15,0c-0.05,0-0.1,0-0.15,0
		c-0.05,0-0.11,0-0.16,0c-0.07,0-0.15,0-0.22,0c-0.81,0.01-1.6,0.15-2.38,0.38c-2.26,0.65-4.23,1.8-5.91,3.45
		c-1.3,1.28-2.3,2.75-3.01,4.42c-0.56,1.32-0.94,2.69-0.99,4.14c-0.01,0.24,0.03,0.49-0.03,0.73c0,0.07,0,0.13,0,0.2
		c0.02,16.36-0.05,32.71,0.04,49.07c-0.01,0.34,0.01,0.68,0.07,1.02c0.52,3.33,2.06,6.11,4.59,8.31c2.34,2.03,5.06,3.19,8.19,3.28
		c0.1,0,0.21,0,0.31,0c0.11,0,0.22,0,0.33,0c16.68,0,33.36,0,50.04,0c0.11,0,0.22,0,0.33,0c0.1,0,0.2,0,0.31,0
		c0.32-0.03,0.63-0.01,0.95-0.05c2.21-0.25,4.23-1.04,6.05-2.31c2.18-1.52,3.82-3.5,4.85-5.96c0.49-1.16,0.88-2.35,0.88-3.63
		c0-0.07,0-0.14,0-0.22c0-0.05,0-0.1,0-0.16c0.01-0.08-0.03-0.17,0.04-0.24C77.01,45.84,77.01,29.19,77.01,12.54z M47.19,52.87
		c-0.1,0.01-0.19,0.01-0.29,0.01c-2.1,0-4.2,0-6.3,0c-0.48,0-0.58-0.07-0.74-0.54c-0.81-2.34-1.61-4.68-2.42-7.02
		c-0.17-0.49-0.06-0.42-0.61-0.42c-3.66,0-7.33,0-10.99,0c-0.01,0-0.02,0-0.04,0c-0.53,0.01-0.41-0.07-0.59,0.44
		c-0.21,0.61-0.4,1.23-0.6,1.84c-0.54,1.68-1.09,3.36-1.63,5.05c-0.03,0.08-0.05,0.16-0.08,0.24c-0.1,0.26-0.28,0.4-0.55,0.4
		c-2.01,0-4.03,0-6.04,0c-0.34,0-0.46-0.16-0.4-0.5c0.02-0.12,0.07-0.23,0.11-0.35c3.38-9.74,6.77-19.48,10.16-29.23
		c0.36-1.03,0.6-2.08,0.58-3.18c0-0.06,0-0.12,0-0.18c0.03-0.23,0.12-0.32,0.35-0.34c0.1-0.01,0.2,0,0.29,0c1.28,0,2.56,0,3.85,0
		c1.25,0,2.49,0,3.74,0c0.1,0,0.2,0,0.29,0c0.34,0.01,0.39,0.05,0.51,0.37c0.3,0.84,0.6,1.68,0.89,2.52
		c3.56,10.03,7.11,20.06,10.67,30.09c0.05,0.14,0.1,0.28,0.12,0.42C47.51,52.74,47.43,52.84,47.19,52.87z M58.2,40.21
		c0,3.99,0,7.98,0,11.97c0,0.12,0,0.24,0,0.37c-0.02,0.37-0.12,0.48-0.49,0.49c-0.05,0-0.1,0-0.15,0c-1.94,0-3.88,0-5.82,0
		c-0.09,0-0.17,0-0.26,0c-0.27-0.02-0.4-0.14-0.45-0.4c-0.02-0.11-0.02-0.22-0.02-0.33c0-8.08,0-16.16,0-24.24c0-0.05,0-0.1,0-0.15
		c0.02-0.41,0.12-0.52,0.53-0.52c1.28,0,2.56,0,3.85,0c0.74,0,1.49,0,2.23,0c0.49,0,0.57,0.08,0.57,0.58c0,2.86,0,5.71,0,8.57
		C58.2,37.77,58.2,38.99,58.2,40.21z M58.35,22.33c-0.61,1.48-1.95,2.36-3.54,2.38c-0.78,0.01-1.53-0.12-2.22-0.51
		c-1.14-0.65-1.71-1.66-1.89-2.93c-0.03-0.2-0.03-0.41-0.04-0.62c-0.07-2.52,2.12-4.22,4.48-3.97c0.28,0.03,0.56,0.07,0.83,0.14
		c1.78,0.48,2.5,2.01,2.64,3.14C58.72,20.77,58.66,21.57,58.35,22.33z"/>
	<path class="st0" d="M35.37,38.38c-2.74,0-5.41,0-8.07,0c-0.05-0.07-0.03-0.13-0.01-0.18c1.03-2.99,1.85-6.03,2.82-9.04
		c0.41-1.28,0.76-2.57,1.03-3.88c0.01-0.07,0.02-0.14,0.13-0.22C32.5,29.53,33.96,33.92,35.37,38.38z"/>
</g>
</svg>
